<svg xmlns="http://www.w3.org/2000/svg" xmlns:xlink="http://www.w3.org/1999/xlink" version="1.1" id="Layer_1" x="0px" y="0px" width="100%" viewBox="0 0 700 613" enable-background="new 0 0 700 613" xml:space="preserve">
<path fill="#FEFFFF" opacity="1.000000" stroke="none" d=" M435.000000,614.000000   C290.000000,614.000000 145.500000,614.000000 1.000000,614.000000   C1.000000,409.666656 1.000000,205.333328 1.000000,1.000000   C234.333328,1.000000 467.666656,1.000000 701.000000,1.000000   C701.000000,205.333328 701.000000,409.666656 701.000000,614.000000   C612.500000,614.000000 524.000000,614.000000 435.000000,614.000000  M220.690979,252.239059   C221.085037,252.260468 221.479080,252.281860 221.925735,253.201492   C221.972382,267.364044 222.014130,281.526611 222.066757,295.689117   C222.163086,321.618927 237.306686,339.114288 260.802124,346.601288   C285.003021,354.313049 309.554810,360.923676 333.991333,368.774414   C336.200409,373.413086 337.945831,378.348999 340.696808,382.640259   C354.528534,404.216370 384.012695,403.294128 397.718079,380.626312   C402.868652,381.418457 408.137665,381.763947 413.146179,383.091888   C425.133331,386.270172 435.939362,391.609894 442.983795,402.448517   C454.467438,420.117249 466.493469,437.479614 477.059998,455.685516   C488.101501,474.709839 496.201660,495.153687 500.411438,516.908264   C501.421753,522.129211 501.819641,527.468750 502.596649,533.511719   C504.411896,531.889771 505.553070,530.955688 506.597870,529.923889   C524.465637,512.278687 539.376099,492.347443 551.205872,470.259338   C572.359619,430.761719 583.747559,388.696503 583.097046,343.642883   C583.059143,341.015320 583.563843,338.379944 584.539246,335.555634   C585.511414,335.360321 586.709229,335.458771 587.415100,334.916687   C589.918762,332.994080 593.652283,331.192383 594.258057,328.698273   C594.856018,326.236816 592.856140,322.402954 590.843811,320.246185   C588.592957,317.833801 585.046814,316.629822 581.899963,314.108398   C580.631165,306.122284 579.362427,298.136200 578.885437,289.921021   C584.120605,290.148621 589.488525,289.728516 594.557190,290.768005   C600.867676,292.062225 606.825256,295.037628 613.124084,296.437012   C624.970215,299.068787 640.306824,295.799377 640.023010,276.298615   C640.001282,274.802551 640.091064,273.301453 640.196106,271.807434   C640.923462,261.457062 642.708313,251.622864 651.975586,244.941177   C654.524170,243.103668 653.898254,240.457443 652.062378,238.365677   C648.009949,233.748367 644.148010,228.882202 639.596008,224.800537   C626.765137,213.295456 615.575989,211.398270 602.521423,224.529083   C598.673706,228.399246 593.758606,229.559128 588.292603,229.240677   C578.028748,228.642746 571.456055,222.354340 565.061096,215.284164   C559.639221,209.289780 553.643799,203.814117 548.026245,197.292496   C547.988403,196.794250 548.040405,196.268951 547.899780,195.801636   C540.333191,170.651276 535.015747,144.993759 530.535889,119.143509   C528.926697,109.857933 526.363403,100.854713 519.457031,93.998260   C503.602386,78.258049 483.546021,74.633980 462.435242,75.863022   C451.243011,76.514626 440.189270,79.352493 429.039612,80.973816   C412.637146,83.358955 396.239197,85.846718 379.771606,87.684105   C370.711578,88.694984 361.454041,89.280006 352.389313,88.623711   C333.617279,87.264603 314.791626,86.479889 296.267120,89.441666   C278.810303,92.232735 261.591400,96.757660 244.470627,101.286346   C237.402313,103.156021 230.862991,107.025513 223.391846,109.801735   C223.109741,109.203217 222.880112,108.572762 222.538040,108.010750   C202.115295,74.457520 181.709351,40.893986 161.227554,7.376801   C157.641403,1.508272 153.802002,1.610170 149.151779,7.511216   C123.801559,39.680210 98.465797,71.860596 73.143669,104.051697   C67.854584,110.775520 68.678215,113.928871 76.476097,116.955521   C104.383369,127.787376 132.299423,138.596619 159.961533,150.012360   C136.403702,171.476700 116.722954,195.998947 101.924088,224.279572   C85.723335,255.239212 75.671204,288.024384 72.816208,322.977783   C70.650780,349.488800 71.954765,375.725098 77.801933,401.692688   C83.123634,425.326630 91.518272,447.801331 102.993942,469.167084   C113.281578,488.320953 125.734085,505.923279 140.473190,521.837585   C163.922546,547.156738 191.382904,567.072021 222.852478,581.315186   C229.891525,584.500977 237.201324,587.088623 244.757523,590.099487   C245.736282,587.138123 246.397690,584.749023 247.313629,582.461792   C248.513779,579.464905 249.914902,576.548462 251.934952,573.846313   C279.277649,582.386719 307.132324,588.548584 335.738922,590.547668   C363.899750,592.515625 391.855408,591.532593 419.360687,582.210693   C419.887604,583.482666 420.414490,584.754700 420.998291,586.164001   C437.946045,579.640320 453.586060,571.655396 468.027313,561.456238   C469.554535,560.377686 470.785217,557.791199 470.813263,555.884521   C470.893402,550.431641 470.926392,544.832275 469.804443,539.539246   C467.756592,529.878052 466.008392,519.892151 462.071869,510.949982   C455.097748,495.107483 443.344299,482.450775 430.910919,470.575897   C429.644257,469.366150 427.594513,468.976349 425.908173,468.206024   C425.304657,470.011719 424.227112,471.803009 424.171722,473.625366   C423.682220,489.734802 423.432922,505.851318 422.986877,521.962280   C422.775696,529.590149 422.290955,537.210449 421.061493,544.893127   C420.068451,544.979553 419.062622,544.992798 418.084198,545.163147   C391.883301,549.725220 365.516327,550.082092 339.061951,548.336365   C312.611053,546.590881 286.706635,541.698669 261.486755,533.985046   C262.331482,530.774109 263.116943,527.546265 264.030334,524.354980   C271.427490,498.510437 279.121094,472.746216 286.117004,446.793793   C288.616821,437.520294 288.485626,427.730377 282.609375,419.433136   C279.306396,414.769348 275.340088,410.007812 270.577332,407.059784   C259.579865,400.252533 247.726288,394.842926 236.579529,388.257782   C227.629532,382.970428 218.281815,377.790833 210.729691,370.811432   C190.112595,351.758148 181.132217,326.968536 180.251053,299.453674   C179.872192,287.623901 181.924316,275.677277 183.380310,263.846344   C183.986221,258.922760 185.919067,254.162491 188.071320,249.546417   C198.015717,250.445847 207.960098,251.345276 218.267014,252.609131   C218.877487,252.492340 219.487946,252.375549 220.690979,252.239059  z"/>
<path fill="#ccc9a0" opacity="1.000000" stroke="none" d=" M187.248535,249.327957   C185.919067,254.162491 183.986221,258.922760 183.380310,263.846344   C181.924316,275.677277 179.872192,287.623901 180.251053,299.453674   C181.132217,326.968536 190.112595,351.758148 210.729691,370.811432   C218.281815,377.790833 227.629532,382.970428 236.579529,388.257782   C247.726288,394.842926 259.579865,400.252533 270.577332,407.059784   C275.340088,410.007812 279.306396,414.769348 282.609375,419.433136   C288.485626,427.730377 288.616821,437.520294 286.117004,446.793793   C279.121094,472.746216 271.427490,498.510437 264.030334,524.354980   C263.116943,527.546265 262.331482,530.774109 261.139282,534.609253   C260.519897,536.498962 260.248016,537.764343 259.731140,539.298950   C258.323456,543.722046 257.160828,547.876099 255.896301,552.353271   C255.653061,553.949463 255.511688,555.222595 255.087036,556.778076   C253.536652,561.011658 252.269531,564.962830 250.929947,569.234375   C250.981522,570.902405 251.105560,572.249878 251.229584,573.597412   C249.914902,576.548462 248.513779,579.464905 247.313629,582.461792   C246.397690,584.749023 245.736282,587.138123 244.757523,590.099487   C237.201324,587.088623 229.891525,584.500977 222.852478,581.315186   C191.382904,567.072021 163.922546,547.156738 140.473190,521.837585   C125.734085,505.923279 113.281578,488.320953 102.993942,469.167084   C91.518272,447.801331 83.123634,425.326630 77.801933,401.692688   C71.954765,375.725098 70.650780,349.488800 72.816208,322.977783   C75.671204,288.024384 85.723335,255.239212 101.924088,224.279572   C116.722954,195.998947 136.403702,171.476700 160.395294,149.752853   C171.138840,153.486008 181.476501,157.409088 191.738388,161.521255   C194.238663,162.523178 198.093201,162.694977 196.688995,167.446350   C196.712509,169.714478 196.998352,171.744034 197.219406,173.824402   C197.154602,173.875244 197.312668,173.828873 197.207428,174.232101   C197.057388,178.736954 197.012573,182.838577 196.674988,187.182526   C195.281799,193.887924 194.181366,200.351028 192.858337,207.125549   C192.427673,208.957001 192.219589,210.477005 191.968628,212.387482   C191.282227,216.535538 190.638702,220.293152 189.913483,224.380676   C189.601105,226.211929 189.370438,227.713257 189.102051,229.665649   C188.395477,234.722229 187.726608,239.327713 186.837463,244.198395   C186.827652,246.085052 187.038086,247.706497 187.248535,249.327957  z"/>
<path fill="#ccc9a0" opacity="1.000000" stroke="none" d=" M333.953064,368.016113   C309.554810,360.923676 285.003021,354.313049 260.802124,346.601288   C237.306686,339.114288 222.163086,321.618927 222.066757,295.689117   C222.014130,281.526611 221.972382,267.364044 222.141388,252.451202   C222.562073,250.176453 222.767136,248.651978 222.940247,246.655319   C222.927734,242.114319 222.947159,238.045517 222.917999,233.565399   C222.912170,231.777649 222.954910,230.401215 222.954376,228.568787   C222.934799,224.775009 222.958511,221.437180 222.922272,217.682068   C222.896530,215.870865 222.930740,214.476959 222.936768,212.610870   C222.820023,206.769562 222.731430,201.400391 222.747650,195.685486   C225.221512,191.213684 227.590546,187.087631 230.270599,182.804199   C232.381302,181.383530 234.685562,178.686905 235.891037,179.111313   C240.486816,180.729309 245.980438,180.715698 248.966125,185.970078   C251.327957,190.126556 254.027985,189.937820 257.104065,186.084412   C259.386078,183.225723 261.851776,180.460464 263.707153,177.339432   C264.499298,176.006943 264.680664,173.375412 263.876770,172.192093   C260.395050,167.067108 256.016998,162.527023 252.749008,157.285385   C242.995865,141.642075 233.611481,125.768860 224.083069,109.985443   C230.862991,107.025513 237.402313,103.156021 244.470627,101.286346   C261.591400,96.757660 278.810303,92.232735 296.267120,89.441666   C314.791626,86.479889 333.617279,87.264603 352.389313,88.623711   C361.454041,89.280006 370.711578,88.694984 379.771606,87.684105   C396.239197,85.846718 412.637146,83.358955 429.039612,80.973816   C440.189270,79.352493 451.243011,76.514626 462.435242,75.863022   C483.546021,74.633980 503.602386,78.258049 519.457031,93.998260   C526.363403,100.854713 528.926697,109.857933 530.535889,119.143509   C535.015747,144.993759 540.333191,170.651276 547.899780,195.801636   C548.040405,196.268951 547.988403,196.794250 547.580566,197.645844   C539.140259,194.356918 531.450745,195.069199 524.526978,200.340805   C518.045715,205.275467 512.022644,210.806992 505.646729,215.885971   C496.326324,223.310501 490.014557,223.271500 481.352905,215.381210   C471.827545,206.704147 460.778992,203.885422 448.505188,206.750168   C433.470947,210.259201 418.664459,211.967560 403.155304,208.970230   C385.821075,205.620178 375.654266,211.374573 366.931335,226.846680   C365.471313,229.436401 364.120697,232.403763 361.908875,234.196396   C354.260651,240.395157 353.476379,242.643768 356.939697,251.935150   C355.396820,253.561981 353.988678,254.954102 353.060913,256.614594   C346.777039,267.861115 340.478149,279.102356 334.431671,290.476898   C331.668762,295.674408 328.235443,300.958130 327.266571,306.575348   C325.199127,318.561676 330.532776,327.459473 341.585144,332.767670   C343.891357,333.875275 344.918884,335.203308 344.287964,338.223846   C342.196228,348.238373 340.586609,358.353607 338.389587,368.386627   C336.642456,368.234039 335.297760,368.125061 333.953064,368.016113  M345.973969,138.688309   C342.432831,147.572250 343.036560,156.086807 349.169128,163.559891   C355.322388,171.058121 363.306030,174.307434 373.099518,172.010529   C384.447296,169.349121 391.888641,160.220932 391.981079,148.791016   C392.070984,137.673355 384.452789,127.699219 373.966522,125.205467   C362.742188,122.536201 351.586029,127.649284 345.973969,138.688309  M319.756561,184.169510   C318.509460,186.098053 316.997620,187.907425 316.065613,189.977798   C313.433868,195.824036 315.846344,202.984009 321.572174,207.013596   C326.221313,210.285461 334.495239,209.743561 338.666687,205.893997   C344.658356,200.364624 345.642151,192.723770 341.140686,186.679062   C336.122131,179.939880 328.348785,178.850693 319.756561,184.169510  M490.828613,203.062683   C492.310883,202.989197 493.830231,203.099289 495.268646,202.808701   C500.087738,201.835144 503.197937,196.812683 501.885284,192.322327   C500.868683,188.844727 497.357147,187.654938 492.384277,189.162308   C491.284271,189.495728 489.965820,189.744308 489.223083,190.499359   C487.140564,192.616501 483.806610,194.992661 483.828827,197.238342   C483.848022,199.179764 487.791351,201.082367 490.828613,203.062683  M287.734100,184.938461   C282.545502,186.218552 280.312164,189.094376 281.083954,193.501770   C281.769623,197.417297 285.533905,200.364761 289.285767,199.923782   C293.204712,199.463165 296.157074,196.054810 296.060822,192.102295   C295.946686,187.414520 293.755524,185.319214 287.734100,184.938461  z"/>
<path fill="#efd100" opacity="1.000000" stroke="none" d=" M357.296661,251.824631   C353.476379,242.643768 354.260651,240.395157 361.908875,234.196396   C364.120697,232.403763 365.471313,229.436401 366.931335,226.846680   C375.654266,211.374573 385.821075,205.620178 403.155304,208.970230   C418.664459,211.967560 433.470947,210.259201 448.505188,206.750168   C460.778992,203.885422 471.827545,206.704147 481.352905,215.381210   C490.014557,223.271500 496.326324,223.310501 505.646729,215.885971   C512.022644,210.806992 518.045715,205.275467 524.526978,200.340805   C531.450745,195.069199 539.140259,194.356918 547.518555,198.054062   C553.643799,203.814117 559.639221,209.289780 565.061096,215.284164   C571.456055,222.354340 578.028748,228.642746 588.292603,229.240677   C593.758606,229.559128 598.673706,228.399246 602.521423,224.529083   C615.575989,211.398270 626.765137,213.295456 639.596008,224.800537   C644.148010,228.882202 648.009949,233.748367 652.062378,238.365677   C653.898254,240.457443 654.524170,243.103668 651.975586,244.941177   C642.708313,251.622864 640.923462,261.457062 640.196106,271.807434   C640.091064,273.301453 640.001282,274.802551 640.023010,276.298615   C640.306824,295.799377 624.970215,299.068787 613.124084,296.437012   C606.825256,295.037628 600.867676,292.062225 594.557190,290.768005   C589.488525,289.728516 584.120605,290.148621 578.115601,290.007812   C567.704346,292.821838 560.704712,298.904785 555.712891,307.395508   C553.188049,311.690033 550.648804,316.021820 548.647766,320.570618   C539.911316,340.429962 525.216431,354.213776 505.660431,362.999512   C492.994507,368.689819 479.686707,372.093292 465.815308,373.283356   C441.477814,375.371338 418.016327,373.308563 396.764465,358.940369   C386.506439,349.293884 379.792633,337.715546 374.639587,325.161835   C373.647125,322.744049 373.267151,320.044159 372.827820,317.436829   C372.080292,313.000061 373.942963,310.464783 378.275787,308.781769   C384.114929,306.513672 389.828796,303.741516 395.179993,300.498566   C397.014954,299.386566 399.110779,295.330597 398.431488,294.157471   C397.080872,291.824951 393.924835,289.218964 391.447449,289.150146   C387.152618,289.030914 382.798218,290.719452 378.486877,291.726990   C377.071289,292.057800 375.711548,292.627716 373.568481,293.340302   C377.350311,285.807373 380.623047,279.326538 383.859406,272.827606   C385.761963,269.007111 384.852509,266.913696 380.432953,265.665131   C371.548523,263.155182 363.277863,259.325043 357.296661,251.824631  z"/>
<path fill="#ccc9a0" opacity="1.000000" stroke="none" d=" M397.014771,359.180023   C418.016327,373.308563 441.477814,375.371338 465.815308,373.283356   C479.686707,372.093292 492.994507,368.689819 505.660431,362.999512   C525.216431,354.213776 539.911316,340.429962 548.647766,320.570618   C550.648804,316.021820 553.188049,311.690033 555.712891,307.395508   C560.704712,298.904785 567.704346,292.821838 577.719727,290.122314   C579.362427,298.136200 580.631165,306.122284 581.540283,314.541443   C579.699951,314.952759 578.197266,314.758209 576.742676,314.942505   C572.751831,315.448151 569.529907,317.155762 568.073792,321.211395   C566.632019,325.227234 568.039734,328.748596 571.329346,330.667542   C575.171997,332.909058 579.626831,334.100952 583.816040,335.748199   C583.563843,338.379944 583.059143,341.015320 583.097046,343.642883   C583.747559,388.696503 572.359619,430.761719 551.205872,470.259338   C539.376099,492.347443 524.465637,512.278687 506.597870,529.923889   C505.553070,530.955688 504.411896,531.889771 502.596649,533.511719   C501.819641,527.468750 501.421753,522.129211 500.411438,516.908264   C496.201660,495.153687 488.101501,474.709839 477.059998,455.685516   C466.493469,437.479614 454.467438,420.117249 442.983795,402.448517   C435.939362,391.609894 425.133331,386.270172 413.146179,383.091888   C408.137665,381.763947 402.868652,381.418457 397.312836,380.469910   C395.904480,379.818329 394.901337,379.323120 393.965393,378.451904   C395.026642,371.777222 396.020721,365.478638 397.014771,359.180023  z"/>
<path fill="#000" opacity="1.000000" stroke="none" d=" M223.737457,109.893585   C233.611481,125.768860 242.995865,141.642075 252.749008,157.285385   C256.016998,162.527023 260.395050,167.067108 263.876770,172.192093   C264.680664,173.375412 264.499298,176.006943 263.707153,177.339432   C261.851776,180.460464 259.386078,183.225723 257.104065,186.084412   C254.027985,189.937820 251.327957,190.126556 248.966125,185.970078   C245.980438,180.715698 240.486816,180.729309 235.891037,179.111313   C234.685562,178.686905 232.381302,181.383530 230.159378,182.505356   C229.103439,181.245804 228.469757,180.127731 228.101501,178.757111   C228.054337,177.364746 228.046021,175.479462 227.379303,175.207321   C223.351990,173.563538 219.174072,172.288727 215.031494,170.925354   C215.016449,170.960190 215.091324,170.972473 214.993042,170.750168   C214.651337,170.267471 214.354691,170.171158 213.696075,170.037476   C209.893341,168.489273 206.399323,167.142517 202.534073,165.652679   C201.443146,168.215088 200.597534,170.496536 199.480927,172.636566   C199.163254,173.245377 198.057190,173.442795 197.312668,173.828873   C197.312668,173.828873 197.154602,173.875244 197.244202,173.414124   C197.206314,171.037933 197.078827,169.122849 196.951340,167.207779   C198.093201,162.694977 194.238663,162.523178 191.738388,161.521255   C181.476501,157.409088 171.138840,153.486008 160.520599,149.453888   C132.299423,138.596619 104.383369,127.787376 76.476097,116.955521   C68.678215,113.928871 67.854584,110.775520 73.143669,104.051697   C98.465797,71.860596 123.801559,39.680210 149.151779,7.511216   C153.802002,1.610170 157.641403,1.508272 161.227554,7.376801   C181.709351,40.893986 202.115295,74.457520 222.538040,108.010750   C222.880112,108.572762 223.109741,109.203217 223.737457,109.893585  z"/>
<path fill="#9BE1D3" opacity="1.000000" stroke="none" d=" M421.930145,544.834167   C422.290955,537.210449 422.775696,529.590149 422.986877,521.962280   C423.432922,505.851318 423.682220,489.734802 424.171722,473.625366   C424.227112,471.803009 425.304657,470.011719 425.908173,468.206024   C427.594513,468.976349 429.644257,469.366150 430.910919,470.575897   C443.344299,482.450775 455.097748,495.107483 462.071869,510.949982   C466.008392,519.892151 467.756592,529.878052 469.804443,539.539246   C470.926392,544.832275 470.893402,550.431641 470.813263,555.884521   C470.785217,557.791199 469.554535,560.377686 468.027313,561.456238   C453.586060,571.655396 437.946045,579.640320 420.998291,586.164001   C420.414490,584.754700 419.887604,583.482666 419.299500,581.692871   C419.819305,579.593140 420.400269,578.011169 420.958649,575.938843   C421.286224,571.612000 421.636383,567.775452 421.922913,563.555054   C421.889740,561.888977 421.920197,560.606812 421.932861,558.862427   C422.276245,555.213074 422.637390,552.026001 422.896362,548.498413   C422.506195,547.049927 422.218170,545.942078 421.930145,544.834167  z"/>
<path fill="#1FB094" opacity="1.000000" stroke="none" d=" M420.981201,576.429260   C420.400269,578.011169 419.819305,579.593140 419.021942,581.425293   C391.855408,591.532593 363.899750,592.515625 335.738922,590.547668   C307.132324,588.548584 279.277649,582.386719 251.582275,573.721863   C251.105560,572.249878 250.981522,570.902405 251.306992,569.296387   C288.893494,580.803101 326.756470,587.989014 365.895081,586.790955   C384.774475,586.213013 403.138672,582.645447 420.981201,576.429260  z"/>
<path fill="#23B297" opacity="1.000000" stroke="none" d=" M421.495819,544.863647   C422.218170,545.942078 422.506195,547.049927 422.480103,548.549316   C418.237701,549.600098 414.326721,550.395020 410.378571,550.898254   C359.423340,557.392456 309.334381,552.819336 259.976135,539.029785   C260.248016,537.764343 260.519897,536.498962 260.964905,535.046082   C286.706635,541.698669 312.611053,546.590881 339.061951,548.336365   C365.516327,550.082092 391.883301,549.725220 418.084198,545.163147   C419.062622,544.992798 420.068451,544.979553 421.495819,544.863647  z"/>
<path fill="#0AB391" opacity="1.000000" stroke="none" d=" M584.177673,335.651917   C579.626831,334.100952 575.171997,332.909058 571.329346,330.667542   C568.039734,328.748596 566.632019,325.227234 568.073792,321.211395   C569.529907,317.155762 572.751831,315.448151 576.742676,314.942505   C578.197266,314.758209 579.699951,314.952759 581.622559,314.937195   C585.046814,316.629822 588.592957,317.833801 590.843811,320.246185   C592.856140,322.402954 594.856018,326.236816 594.258057,328.698273   C593.652283,331.192383 589.918762,332.994080 587.415100,334.916687   C586.709229,335.458771 585.511414,335.360321 584.177673,335.651917  z"/>
<path fill="#359482" opacity="1.000000" stroke="none" d=" M393.898224,378.827942   C394.901337,379.323120 395.904480,379.818329 396.981720,380.673279   C384.012695,403.294128 354.528534,404.216370 340.696808,382.640259   C337.945831,378.348999 336.200409,373.413086 333.972198,368.395264   C335.297760,368.125061 336.642456,368.234039 338.554993,368.668030   C343.127167,375.011230 346.432648,381.681335 351.297333,386.897186   C358.871094,395.017670 370.035126,396.463226 379.548187,390.823303   C384.841522,387.685089 389.147339,382.881165 393.898224,378.827942  z"/>
<path fill="#329789" opacity="1.000000" stroke="none" d=" M222.972198,247.127518   C222.767136,248.651978 222.562073,250.176453 222.115082,252.002090   C221.479080,252.281860 221.085037,252.260468 220.034912,252.139557   C218.887390,252.108261 218.395935,252.176483 217.904495,252.244720   C207.960098,251.345276 198.015717,250.445847 187.659927,249.437195   C187.038086,247.706497 186.827652,246.085052 187.250259,244.238159   C199.579605,245.050995 211.275894,246.089249 222.972198,247.127518  z"/>
<path fill="#ccc9a0" opacity="1.000000" stroke="none" d=" M218.085754,252.426926   C218.395935,252.176483 218.887390,252.108261 219.738617,252.149399   C219.487946,252.375549 218.877487,252.492340 218.085754,252.426926  z"/>
<path fill="#F4FEFC" opacity="1.000000" stroke="none" d=" M420.958618,575.938843   C403.138672,582.645447 384.774475,586.213013 365.895081,586.790955   C326.756470,587.989014 288.893494,580.803101 251.379456,568.975891   C252.269531,564.962830 253.536652,561.011658 255.443085,556.891479   C260.034119,557.984314 263.976562,559.276184 267.939056,560.503357   C295.951202,569.179138 324.727448,572.785095 353.938690,572.570374   C376.914368,572.401550 399.649323,569.539246 421.986542,563.938965   C421.636383,567.775452 421.286224,571.612000 420.958618,575.938843  z"/>
<path fill="#F5FEFD" opacity="1.000000" stroke="none" d=" M259.731140,539.298950   C309.334381,552.819336 359.423340,557.392456 410.378571,550.898254   C414.326721,550.395020 418.237701,549.600098 422.582275,548.889893   C422.637390,552.026001 422.276245,555.213074 421.563293,558.897095   C403.181519,562.037964 385.230103,565.640869 367.105164,567.126587   C329.077362,570.243652 292.012482,564.588257 255.998169,552.030090   C257.160828,547.876099 258.323456,543.722046 259.731140,539.298950  z"/>
<path fill="#20B094" opacity="1.000000" stroke="none" d=" M255.896301,552.353271   C292.012482,564.588257 329.077362,570.243652 367.105164,567.126587   C385.230103,565.640869 403.181519,562.037964 421.581085,559.359375   C421.920197,560.606812 421.889740,561.888977 421.922913,563.555054   C399.649323,569.539246 376.914368,572.401550 353.938690,572.570374   C324.727448,572.785095 295.951202,569.179138 267.939056,560.503357   C263.976562,559.276184 260.034119,557.984314 255.726349,556.609009   C255.511688,555.222595 255.653061,553.949463 255.896301,552.353271  z"/>
<path fill="#F3D0A9" opacity="1.000000" stroke="none" d=" M197.207428,174.232101   C198.057190,173.442795 199.163254,173.245377 199.480927,172.636566   C200.597534,170.496536 201.443146,168.215088 202.534073,165.652679   C206.399323,167.142517 209.893341,168.489273 213.843201,170.205353   C214.526199,170.780777 214.790298,170.913391 215.091324,170.972473   C215.091324,170.972473 215.016449,170.960190 215.058838,171.275726   C217.503418,174.500397 219.905594,177.409546 221.226883,179.009674   C224.227829,179.009674 226.031952,179.009674 227.836075,179.009674   C228.469757,180.127731 229.103439,181.245804 229.848358,182.662720   C227.590546,187.087631 225.221512,191.213684 222.400208,195.650223   C213.621216,192.953857 205.294495,189.947037 196.967758,186.940201   C197.012573,182.838577 197.057388,178.736954 197.207428,174.232101  z"/>
<path fill="#F9FDFB" opacity="1.000000" stroke="none" d=" M196.674988,187.182526   C205.294495,189.947037 213.621216,192.953857 222.295380,195.995972   C222.731430,201.400391 222.820023,206.769562 222.534409,212.559601   C212.467117,210.925034 202.774017,208.869568 193.080933,206.814117   C194.181366,200.351028 195.281799,193.887924 196.674988,187.182526  z"/>
<path fill="#F5FDFC" opacity="1.000000" stroke="none" d=" M222.940247,246.655319   C211.275894,246.089249 199.579605,245.050995 187.470520,243.972961   C187.726608,239.327713 188.395477,234.722229 189.489594,229.828842   C200.932098,231.019547 211.949326,232.498138 222.966568,233.976715   C222.947159,238.045517 222.927734,242.114319 222.940247,246.655319  z"/>
<path fill="#F4FEFC" opacity="1.000000" stroke="none" d=" M222.982208,218.099365   C222.958511,221.437180 222.934799,224.775009 222.534912,228.508484   C211.437546,227.286346 200.716354,225.668549 189.995178,224.050751   C190.638702,220.293152 191.282227,216.535538 192.341415,212.461197   C202.832123,214.129425 212.907166,216.114395 222.982208,218.099365  z"/>
<path fill="#329789" opacity="1.000000" stroke="none" d=" M189.913483,224.380692   C200.716354,225.668549 211.437546,227.286346 222.578186,228.964447   C222.954910,230.401215 222.912170,231.777649 222.917999,233.565399   C211.949326,232.498138 200.932098,231.019547 189.527313,229.377762   C189.370438,227.713257 189.601105,226.211929 189.913483,224.380692  z"/>
<path fill="#329789" opacity="1.000000" stroke="none" d=" M222.922272,217.682068   C212.907166,216.114395 202.832123,214.129425 192.384293,212.070740   C192.219589,210.477005 192.427673,208.957001 192.858337,207.125549   C202.774017,208.869568 212.467117,210.925034 222.562561,213.031769   C222.930740,214.476959 222.896530,215.870865 222.922272,217.682068  z"/>
<path fill="#F3D0A9" opacity="1.000000" stroke="none" d=" M196.688995,167.446350   C197.078827,169.122849 197.206314,171.037933 197.309006,173.363281   C196.998352,171.744034 196.712509,169.714478 196.688995,167.446350  z"/>
<path fill="#F3D4AA" opacity="1.000000" stroke="none" d=" M393.965393,378.451904   C389.147339,382.881165 384.841522,387.685089 379.548187,390.823303   C370.035126,396.463226 358.871094,395.017670 351.297333,386.897186   C346.432648,381.681335 343.127167,375.011230 338.957397,368.711609   C340.586609,358.353607 342.196228,348.238373 344.287964,338.223846   C344.918884,335.203308 343.891357,333.875275 341.585144,332.767670   C330.532776,327.459473 325.199127,318.561676 327.266571,306.575348   C328.235443,300.958130 331.668762,295.674408 334.431671,290.476898   C340.478149,279.102356 346.777039,267.861115 353.060913,256.614594   C353.988678,254.954102 355.396820,253.561981 356.939697,251.935150   C363.277863,259.325043 371.548523,263.155182 380.432953,265.665131   C384.852509,266.913696 385.761963,269.007111 383.859406,272.827606   C380.623047,279.326538 377.350311,285.807373 373.568481,293.340302   C375.711548,292.627716 377.071289,292.057800 378.486877,291.726990   C382.798218,290.719452 387.152618,289.030914 391.447449,289.150146   C393.924835,289.218964 397.080872,291.824951 398.431488,294.157471   C399.110779,295.330597 397.014954,299.386566 395.179993,300.498566   C389.828796,303.741516 384.114929,306.513672 378.275787,308.781769   C373.942963,310.464783 372.080292,313.000061 372.827820,317.436829   C373.267151,320.044159 373.647125,322.744049 374.639587,325.161835   C379.792633,337.715546 386.506439,349.293884 396.764465,358.940369   C396.020721,365.478638 395.026642,371.777222 393.965393,378.451904  z"/>
<path fill="#FCFEFE" opacity="1.000000" stroke="none" d=" M346.074402,138.315613   C351.586029,127.649284 362.742188,122.536201 373.966522,125.205467   C384.452789,127.699219 392.070984,137.673355 391.981079,148.791016   C391.888641,160.220932 384.447296,169.349121 373.099518,172.010529   C363.306030,174.307434 355.322388,171.058121 349.169128,163.559891   C343.036560,156.086807 342.432831,147.572250 346.074402,138.315613  z"/>
<path fill="#FAFEFE" opacity="1.000000" stroke="none" d=" M320.080933,183.971588   C328.348785,178.850693 336.122131,179.939880 341.140686,186.679062   C345.642151,192.723770 344.658356,200.364624 338.666687,205.893997   C334.495239,209.743561 326.221313,210.285461 321.572174,207.013596   C315.846344,202.984009 313.433868,195.824036 316.065613,189.977798   C316.997620,187.907425 318.509460,186.098053 320.080933,183.971588  z"/>
<path fill="#0AB391" opacity="1.000000" stroke="none" d=" M490.414307,203.032410   C487.791351,201.082367 483.848022,199.179764 483.828827,197.238342   C483.806610,194.992661 487.140564,192.616501 489.223083,190.499359   C489.965820,189.744308 491.284271,189.495728 492.384277,189.162308   C497.357147,187.654938 500.868683,188.844727 501.885284,192.322327   C503.197937,196.812683 500.087738,201.835144 495.268646,202.808701   C493.830231,203.099289 492.310883,202.989197 490.414307,203.032410  z"/>
<path fill="#F4FEFC" opacity="1.000000" stroke="none" d=" M288.148773,184.935699   C293.755524,185.319214 295.946686,187.414520 296.060822,192.102295   C296.157074,196.054810 293.204712,199.463165 289.285767,199.923782   C285.533905,200.364761 281.769623,197.417297 281.083954,193.501770   C280.312164,189.094376 282.545502,186.218552 288.148773,184.935699  z"/>
<path fill="#C8CEB3" opacity="1.000000" stroke="none" d=" M228.101501,178.757111   C226.031952,179.009674 224.227829,179.009674 221.226883,179.009674   C219.905594,177.409546 217.503418,174.500397 215.073883,171.240906   C219.174072,172.288727 223.351990,173.563538 227.379303,175.207321   C228.046021,175.479462 228.054337,177.364746 228.101501,178.757111  z"/>
<path fill="#C8CEB3" opacity="1.000000" stroke="none" d=" M214.993042,170.750168   C214.790298,170.913391 214.526199,170.780777 214.151917,170.406784   C214.354691,170.171158 214.651337,170.267471 214.993042,170.750168  z"/>
</svg>